<svg width="1108" height="1000" viewBox="0 0 1108 1000" fill="none" xmlns="http://www.w3.org/2000/svg">
<path d="M465.519 425.142C465.519 301.908 565.317 202.054 688.627 202.054C811.823 202.054 911.771 301.908 911.771 425.142C911.771 489.766 883.827 547.364 840.069 588.19L840.633 588.321L465.519 963.417L90.2192 588.323C90.3692 588.192 90.4808 588.192 90.6327 588.023C46.875 547.269 19.2308 489.766 19.2308 425.142C19.2308 301.908 119.065 202.054 242.412 202.054C365.535 202.054 465.519 301.908 465.519 425.142Z" fill="#FFA8A6"/>
<path d="M457.575 700.796C493.078 700.796 521.86 672.015 521.86 636.512C521.86 601.008 493.078 572.227 457.575 572.227C422.071 572.227 393.29 601.008 393.29 636.512C393.29 672.015 422.071 700.796 457.575 700.796Z" fill="#C0DFCF"/>
<path d="M465.519 982.648C460.598 982.648 455.679 980.769 451.923 977.013L76.6212 601.919C75.7019 600.998 74.875 599.985 74.1615 598.896C26.2923 552.679 0 491.154 0 425.142C0 291.523 108.754 182.823 242.412 182.823C342.49 182.823 428.598 243.785 465.519 330.548C502.44 243.785 588.548 182.823 688.627 182.823C822.265 182.823 931.002 291.523 931.002 425.142C931.002 491.004 904.615 552.565 856.577 599.027C855.9 600.06 855.131 601.036 854.229 601.919L479.115 977.013C475.36 980.769 470.44 982.648 465.519 982.648ZM106.971 577.881L465.519 936.223L823.881 577.881C824.725 576.51 825.739 575.252 826.94 574.125C869.252 534.667 892.54 481.746 892.54 425.142C892.54 312.744 801.062 221.285 688.627 221.285C576.21 221.285 484.75 312.744 484.75 425.142C484.75 435.773 476.148 444.373 465.519 444.373C454.89 444.373 446.288 435.773 446.288 425.142C446.288 312.744 354.829 221.285 242.412 221.285C129.958 221.285 38.4615 312.744 38.4615 425.142C38.4615 481.896 61.6346 534.742 103.74 573.956C105.017 575.138 106.106 576.473 106.971 577.881Z" fill="#43525B"/>
<path d="M852.2 274.808C847.337 274.808 842.49 272.986 838.735 269.306C831.148 261.888 831.035 249.7 838.473 242.111L1006.93 70.1998C1014.35 62.6133 1026.52 62.4806 1034.12 69.9364C1041.71 77.3556 1041.82 89.5421 1034.39 97.1306L865.929 269.042C862.173 272.875 857.177 274.808 852.2 274.808Z" fill="#43525B"/>
<path d="M473.933 720.065C427.885 720.065 390.417 682.581 390.417 636.513C390.417 590.446 427.885 552.981 473.933 552.981C520 552.981 557.467 590.446 557.467 636.513C557.467 682.581 520 720.065 473.933 720.065ZM473.933 591.44C449.086 591.44 428.879 611.667 428.879 636.511C428.879 661.377 449.086 681.602 473.933 681.602C498.779 681.602 519.006 661.375 519.006 636.511C519.006 611.665 498.779 591.44 473.933 591.44Z" fill="#43525B"/>
<path d="M275.577 1000H136.306C125.675 1000 117.075 991.398 117.075 980.769V840.708C117.075 830.079 125.675 821.477 136.306 821.477C146.935 821.477 155.537 830.079 155.537 840.708V961.539H275.577C286.208 961.539 294.808 970.141 294.808 980.769C294.808 991.398 286.208 1000 275.577 1000Z" fill="#43525B"/>
<path d="M154.146 978.704C149.244 978.704 144.342 976.844 140.587 973.108C133.056 965.613 133.019 953.444 140.512 945.913L468.112 616.681C475.604 609.169 487.773 609.113 495.304 616.606C502.835 624.098 502.873 636.269 495.379 643.8L167.781 973.033C164.025 976.806 159.085 978.704 154.146 978.704Z" fill="#43525B"/>
<path d="M1088 149.019H977.425C966.796 149.019 958.194 140.419 958.194 129.788V19.2308C958.194 8.60192 966.796 0 977.425 0C988.056 0 996.656 8.60192 996.656 19.2308V110.558H1088C1098.63 110.558 1107.23 119.16 1107.23 129.788C1107.23 140.419 1098.63 149.019 1088 149.019Z" fill="#43525B"/>
<path d="M1018.89 218.131H908.315C897.687 218.131 889.085 209.529 889.085 198.9V88.3231C889.085 77.6923 897.687 69.0923 908.315 69.0923C918.944 69.0923 927.546 77.6923 927.546 88.3231V179.669H1018.89C1029.52 179.669 1038.12 188.269 1038.12 198.9C1038.12 209.529 1029.52 218.131 1018.89 218.131Z" fill="#43525B"/>
</svg>
